<svg width="19" height="19" viewBox="0 0 19 19" fill="none" xmlns="http://www.w3.org/2000/svg">
<path fill-rule="evenodd" clip-rule="evenodd" d="M1.74071 2.88983C1.35866 3.16726 1.32558 3.34708 1.32558 3.39287C1.32558 3.43865 1.35866 3.61847 1.74071 3.89591C2.10554 4.16084 2.67645 4.4272 3.4416 4.66221C4.96345 5.12963 7.10559 5.42859 9.5 5.42859C11.8944 5.42859 14.0365 5.12963 15.5584 4.66221C16.3235 4.4272 16.8945 4.16084 17.2593 3.89591C17.6413 3.61847 17.6744 3.43865 17.6744 3.39287C17.6744 3.34708 17.6413 3.16726 17.2593 2.88983C16.8945 2.6249 16.3235 2.35854 15.5584 2.12353C14.0365 1.6561 11.8944 1.35715 9.5 1.35715C7.10559 1.35715 4.96345 1.6561 3.4416 2.12353C2.67645 2.35854 2.10554 2.6249 1.74071 2.88983ZM3.0607 0.823616C4.73729 0.308662 7.01375 0 9.5 0C11.9862 0 14.2627 0.308662 15.9393 0.823616C16.7734 1.0798 17.4966 1.39832 18.0262 1.78286C18.5385 2.15489 19 2.68912 19 3.39287C19 4.09661 18.5385 4.63084 18.0262 5.00288C17.4966 5.38741 16.7734 5.70594 15.9393 5.96212C14.2627 6.47707 11.9862 6.78573 9.5 6.78573C7.01375 6.78573 4.73729 6.47707 3.0607 5.96212C2.22662 5.70594 1.50336 5.38741 0.973817 5.00288C0.461493 4.63084 0 4.09661 0 3.39287C0 2.68912 0.461493 2.15489 0.973817 1.78286C1.50336 1.39832 2.22662 1.0798 3.0607 0.823616Z" fill="white"/>
<path fill-rule="evenodd" clip-rule="evenodd" d="M14.7047 5.25484C14.7984 4.89256 15.1612 4.67664 15.5151 4.77256C16.4662 5.03041 17.2894 5.35957 17.8907 5.7601C18.4651 6.14266 19 6.70469 19 7.46425C19 8.168 18.5385 8.70223 18.0262 9.07426C17.4966 9.4588 16.7734 9.77732 15.9393 10.0335C14.2627 10.5485 11.9862 10.8571 9.5 10.8571C7.01375 10.8571 4.73729 10.5485 3.0607 10.0335C2.22662 9.77732 1.50336 9.4588 0.973817 9.07426C0.461493 8.70223 0 8.168 0 7.46425C0 6.70469 0.534881 6.14267 1.10926 5.7601C1.7106 5.35957 2.53376 5.03041 3.48494 4.77256C3.83879 4.67664 4.2016 4.89256 4.2953 5.25485C4.38899 5.61713 4.17809 5.98858 3.82423 6.0845C2.94075 6.324 2.26801 6.60737 1.83212 6.8977C1.36927 7.20599 1.32558 7.41315 1.32558 7.46425C1.32558 7.51004 1.35866 7.68986 1.74071 7.96729C2.10554 8.23222 2.67645 8.49858 3.4416 8.73359C4.96345 9.20102 7.10559 9.49997 9.5 9.49997C11.8944 9.49997 14.0365 9.20102 15.5584 8.73359C16.3235 8.49858 16.8945 8.23222 17.2593 7.96729C17.6413 7.68986 17.6744 7.51004 17.6744 7.46425C17.6744 7.41315 17.6307 7.20599 17.1679 6.8977C16.732 6.60737 16.0592 6.324 15.1758 6.0845C14.8219 5.98858 14.611 5.61713 14.7047 5.25484Z" fill="white"/>
<path fill-rule="evenodd" clip-rule="evenodd" d="M14.7047 9.32629C14.7984 8.964 15.1612 8.74808 15.5151 8.84401C16.4662 9.10185 17.2894 9.43101 17.8907 9.83154C18.4651 10.2141 19 10.7761 19 11.5357C19 12.2394 18.5385 12.7737 18.0262 13.1457C17.4966 13.5302 16.7734 13.8488 15.9393 14.1049C14.2627 14.6199 11.9862 14.9286 9.5 14.9286C7.01375 14.9286 4.73729 14.6199 3.0607 14.1049C2.22662 13.8488 1.50336 13.5302 0.973817 13.1457C0.461493 12.7737 0 12.2394 0 11.5357C0 10.7761 0.534881 10.2141 1.10926 9.83154C1.7106 9.43101 2.53376 9.10185 3.48494 8.84401C3.83879 8.74808 4.2016 8.964 4.2953 9.32629C4.38899 9.68857 4.17809 10.06 3.82423 10.1559C2.94075 10.3954 2.26801 10.6788 1.83212 10.9691C1.36927 11.2774 1.32558 11.4846 1.32558 11.5357C1.32558 11.5815 1.35866 11.7613 1.74071 12.0387C2.10554 12.3037 2.67645 12.57 3.4416 12.805C4.96345 13.2725 7.10559 13.5714 9.5 13.5714C11.8944 13.5714 14.0365 13.2725 15.5584 12.805C16.3235 12.57 16.8945 12.3037 17.2593 12.0387C17.6413 11.7613 17.6744 11.5815 17.6744 11.5357C17.6744 11.4846 17.6307 11.2774 17.1679 10.9691C16.732 10.6788 16.0592 10.3954 15.1758 10.1559C14.8219 10.06 14.611 9.68857 14.7047 9.32629Z" fill="white"/>
<path fill-rule="evenodd" clip-rule="evenodd" d="M14.7047 13.3977C14.7984 13.0354 15.1612 12.8195 15.5151 12.9154C16.4662 13.1733 17.2894 13.5024 17.8907 13.903C18.4651 14.2855 19 14.8476 19 15.6071C19 16.3109 18.5385 16.8451 18.0262 17.2171C17.4966 17.6017 16.7734 17.9202 15.9393 18.1764C14.2627 18.6913 11.9862 19 9.5 19C7.01375 19 4.73729 18.6913 3.0607 18.1764C2.22662 17.9202 1.50336 17.6017 0.973817 17.2171C0.461493 16.8451 0 16.3109 0 15.6071C0 14.8476 0.534881 14.2855 1.10926 13.903C1.7106 13.5024 2.53376 13.1733 3.48494 12.9154C3.83879 12.8195 4.2016 13.0354 4.2953 13.3977C4.38899 13.76 4.17809 14.1315 3.82423 14.2274C2.94075 14.4669 2.26801 14.7503 1.83212 15.0406C1.36927 15.3489 1.32558 15.556 1.32558 15.6071C1.32558 15.6529 1.35866 15.8327 1.74071 16.1102C2.10554 16.3751 2.67645 16.6415 3.4416 16.8765C4.96345 17.3439 7.10559 17.6429 9.5 17.6429C11.8944 17.6429 14.0365 17.3439 15.5584 16.8765C16.3235 16.6415 16.8945 16.3751 17.2593 16.1102C17.6413 15.8327 17.6744 15.6529 17.6744 15.6071C17.6744 15.556 17.6307 15.3489 17.1679 15.0406C16.732 14.7503 16.0592 14.4669 15.1758 14.2274C14.8219 14.1315 14.611 13.76 14.7047 13.3977Z" fill="white"/>
</svg>
