<svg width="19" height="22" viewBox="0 0 19 22" fill="none" xmlns="http://www.w3.org/2000/svg">
<path d="M9.29946 0.0300333C9.43322 -0.0100295 9.57535 -0.0100107 9.7091 0.0300874L18.4741 2.65788C18.7858 2.75131 19 3.04457 19 3.37778V8.76675C19 14.7538 15.2667 20.069 9.73227 21.9615C9.58234 22.0128 9.42026 22.0128 9.27032 21.9616C3.73442 20.069 0 14.7527 0 8.76425V3.37778C0 3.0445 0.214303 2.75119 0.526041 2.65782L9.29946 0.0300333ZM1.46154 3.94018V8.76425C1.46154 14.0232 4.68967 18.7012 9.50123 20.4568C14.3114 18.7012 17.5385 14.0244 17.5385 8.76675V3.94003L9.50409 1.5313L1.46154 3.94018Z" fill="white"/>
<path d="M14.8886 7.21938C15.1739 7.51226 15.1739 7.98713 14.8886 8.28002L9.04241 14.28C8.75703 14.5728 8.29433 14.5728 8.00895 14.28L4.59869 10.78C4.31331 10.4871 4.31331 10.0122 4.59869 9.71935C4.88408 9.42646 5.34677 9.42646 5.63216 9.71935L8.52568 12.689L13.8551 7.21938C14.1405 6.92649 14.6032 6.92649 14.8886 7.21938Z" fill="white"/>
</svg>
