<svg width="21" height="23" viewBox="0 0 21 23" fill="none" xmlns="http://www.w3.org/2000/svg">
<path d="M10.5 1.60465C8.567 1.60465 7 3.16124 7 5.0814C7 7.00155 8.567 8.55814 10.5 8.55814C12.433 8.55814 14 7.00155 14 5.0814C14 3.16124 12.433 1.60465 10.5 1.60465ZM5.38462 5.0814C5.38462 2.27502 7.67485 0 10.5 0C13.3251 0 15.6154 2.27502 15.6154 5.0814C15.6154 7.88777 13.3251 10.1628 10.5 10.1628C7.67485 10.1628 5.38462 7.88777 5.38462 5.0814Z" fill="white"/>
<path d="M0 22.1977C0 16.4372 4.70102 11.7674 10.5 11.7674C16.299 11.7674 21 16.4372 21 22.1977C21 22.6408 20.6384 23 20.1923 23C19.7462 23 19.3846 22.6408 19.3846 22.1977C19.3846 17.3235 15.4068 13.3721 10.5 13.3721C5.59318 13.3721 1.61538 17.3235 1.61538 22.1977C1.61538 22.6408 1.25377 23 0.807692 23C0.361616 23 0 22.6408 0 22.1977Z" fill="white"/>
</svg>
