<svg width="23" height="23" viewBox="0 0 23 23" fill="none" xmlns="http://www.w3.org/2000/svg">
<path fill-rule="evenodd" clip-rule="evenodd" d="M17.4516 1.7086C17.3456 1.60257 17.1737 1.60257 17.0677 1.7086L11.692 7.08427C11.586 7.1903 11.586 7.36222 11.692 7.46825L15.5318 11.308C15.6378 11.414 15.8097 11.414 15.9157 11.308L21.2914 5.93234C21.3974 5.82631 21.3974 5.6544 21.2914 5.54837L17.4516 1.7086ZM15.9157 0.556669C16.658 -0.185556 17.8613 -0.185556 18.6036 0.556669L22.4433 4.39644C23.1856 5.13866 23.1856 6.34205 22.4433 7.08427L17.0677 12.4599C16.3254 13.2022 15.122 13.2022 14.3798 12.4599L10.5401 8.62018C9.79783 7.87795 9.79783 6.67457 10.5401 5.93234L15.9157 0.556669Z" fill="white"/>
<path fill-rule="evenodd" clip-rule="evenodd" d="M7.46825 11.692C7.36222 11.586 7.1903 11.586 7.08427 11.692L1.7086 17.0677C1.60257 17.1737 1.60257 17.3456 1.7086 17.4516L5.54837 21.2914C5.6544 21.3974 5.82631 21.3974 5.93234 21.2914L11.308 15.9157C11.414 15.8097 11.414 15.6378 11.308 15.5318L7.46825 11.692ZM5.93234 10.5401C6.67457 9.79783 7.87795 9.79783 8.62018 10.5401L12.4599 14.3798C13.2022 15.122 13.2022 16.3254 12.4599 17.0677L7.08427 22.4433C6.34205 23.1856 5.13866 23.1856 4.39644 22.4433L0.556669 18.6036C-0.185556 17.8613 -0.185556 16.658 0.556669 15.9157L5.93234 10.5401Z" fill="white"/>
<path fill-rule="evenodd" clip-rule="evenodd" d="M15.9157 7.0843C16.2338 7.4024 16.2338 7.91813 15.9157 8.23623L8.23616 15.9157C7.91806 16.2338 7.40232 16.2338 7.08423 15.9157C6.76613 15.5976 6.76614 15.0819 7.08423 14.7638L14.7638 7.0843C15.0819 6.7662 15.5976 6.7662 15.9157 7.0843Z" fill="white"/>
</svg>
