<svg width="26" height="26" viewBox="0 0 26 26" fill="none" xmlns="http://www.w3.org/2000/svg">
<path d="M12.9974 2.16675C7.01431 2.16675 2.16406 7.017 2.16406 13.0001C2.16406 18.9832 7.01431 23.8334 12.9974 23.8334C18.9805 23.8334 23.8307 18.9832 23.8307 13.0001C23.8307 7.017 18.9805 2.16675 12.9974 2.16675ZM12.9974 2.16675C14.7645 2.16675 16.5049 2.59905 18.0666 3.42595C19.6284 4.25286 20.9641 5.44925 21.9574 6.91083C22.9507 8.37241 23.5714 10.0548 23.7653 11.8113C23.9592 13.5678 23.7205 15.345 23.07 16.9881C22.4194 18.6311 21.3768 20.0901 20.0331 21.2378C18.6893 22.3855 17.0852 23.187 15.3606 23.5725C13.636 23.958 11.8433 23.9157 10.1387 23.4494C8.43423 22.9832 6.86968 22.107 5.58149 20.8973L12.9974 13.0001V2.16675Z" stroke="#257DFF" stroke-width="1.5" stroke-linecap="round" stroke-linejoin="round"/>
</svg>
