<svg width="28" height="28" viewBox="0 0 28 28" fill="none" xmlns="http://www.w3.org/2000/svg">
<path fill-rule="evenodd" clip-rule="evenodd" d="M14 8.45833C14.4832 8.45833 14.875 8.85008 14.875 9.33333V18.6667C14.875 19.1499 14.4832 19.5417 14 19.5417C13.5168 19.5417 13.125 19.1499 13.125 18.6667V9.33333C13.125 8.85008 13.5168 8.45833 14 8.45833Z" fill="#257DFF"/>
<path fill-rule="evenodd" clip-rule="evenodd" d="M24.5 11.375C24.9832 11.375 25.375 11.7668 25.375 12.25V15.75C25.375 16.2332 24.9832 16.625 24.5 16.625C24.0168 16.625 23.625 16.2332 23.625 15.75V12.25C23.625 11.7668 24.0168 11.375 24.5 11.375Z" fill="#257DFF"/>
<path fill-rule="evenodd" clip-rule="evenodd" d="M3.5 11.375C3.98325 11.375 4.375 11.7668 4.375 12.25V15.75C4.375 16.2332 3.98325 16.625 3.5 16.625C3.01675 16.625 2.625 16.2332 2.625 15.75V12.25C2.625 11.7668 3.01675 11.375 3.5 11.375Z" fill="#257DFF"/>
<path fill-rule="evenodd" clip-rule="evenodd" d="M2.625 4.66667C2.625 3.53908 3.53908 2.625 4.66667 2.625H8.16667C8.64992 2.625 9.04167 3.01675 9.04167 3.5C9.04167 3.98325 8.64992 4.375 8.16667 4.375H4.66667C4.50558 4.375 4.375 4.50558 4.375 4.66667V8.16667C4.375 8.64992 3.98325 9.04167 3.5 9.04167C3.01675 9.04167 2.625 8.64992 2.625 8.16667V4.66667Z" fill="#257DFF"/>
<path fill-rule="evenodd" clip-rule="evenodd" d="M18.9583 3.5C18.9583 3.01675 19.3501 2.625 19.8333 2.625H23.3333C24.4609 2.625 25.375 3.53909 25.375 4.66667V8.16667C25.375 8.64992 24.9832 9.04167 24.5 9.04167C24.0168 9.04167 23.625 8.64992 23.625 8.16667V4.66667C23.625 4.50557 23.4944 4.375 23.3333 4.375H19.8333C19.3501 4.375 18.9583 3.98325 18.9583 3.5Z" fill="#257DFF"/>
<path fill-rule="evenodd" clip-rule="evenodd" d="M24.5 18.9583C24.9832 18.9583 25.375 19.3501 25.375 19.8333V23.3333C25.375 24.4609 24.4609 25.375 23.3333 25.375H19.8333C19.3501 25.375 18.9583 24.9832 18.9583 24.5C18.9583 24.0168 19.3501 23.625 19.8333 23.625H23.3333C23.4944 23.625 23.625 23.4944 23.625 23.3333V19.8333C23.625 19.3501 24.0168 18.9583 24.5 18.9583Z" fill="#257DFF"/>
<path fill-rule="evenodd" clip-rule="evenodd" d="M3.5 18.9583C3.98325 18.9583 4.375 19.3501 4.375 19.8333V23.3333C4.375 23.4944 4.50557 23.625 4.66667 23.625H8.16667C8.64992 23.625 9.04167 24.0168 9.04167 24.5C9.04167 24.9832 8.64992 25.375 8.16667 25.375H4.66667C3.53909 25.375 2.625 24.4609 2.625 23.3333V19.8333C2.625 19.3501 3.01675 18.9583 3.5 18.9583Z" fill="#257DFF"/>
<path fill-rule="evenodd" clip-rule="evenodd" d="M11.375 3.5C11.375 3.01675 11.7668 2.625 12.25 2.625H15.75C16.2332 2.625 16.625 3.01675 16.625 3.5C16.625 3.98325 16.2332 4.375 15.75 4.375H12.25C11.7668 4.375 11.375 3.98325 11.375 3.5Z" fill="#257DFF"/>
<path fill-rule="evenodd" clip-rule="evenodd" d="M8.45833 14C8.45833 13.5168 8.85008 13.125 9.33333 13.125H18.6667C19.1499 13.125 19.5417 13.5168 19.5417 14C19.5417 14.4832 19.1499 14.875 18.6667 14.875H9.33333C8.85008 14.875 8.45833 14.4832 8.45833 14Z" fill="#257DFF"/>
<path fill-rule="evenodd" clip-rule="evenodd" d="M11.375 24.5C11.375 24.0168 11.7668 23.625 12.25 23.625H15.75C16.2332 23.625 16.625 24.0168 16.625 24.5C16.625 24.9832 16.2332 25.375 15.75 25.375H12.25C11.7668 25.375 11.375 24.9832 11.375 24.5Z" fill="#257DFF"/>
</svg>
