<svg width="22" height="27" viewBox="0 0 22 27" fill="none" xmlns="http://www.w3.org/2000/svg">
<path fill-rule="evenodd" clip-rule="evenodd" d="M6.72222 0.94186C6.72222 0.421685 7.13263 0 7.63889 0H11.3056C11.8118 0 12.2222 0.421685 12.2222 0.94186C12.2222 1.54652 12.8964 2.51163 14.3611 2.51163C15.8258 2.51163 16.5 1.54652 16.5 0.94186C16.5 0.421685 16.9104 0 17.4167 0H21.0833C21.5896 0 22 0.421685 22 0.94186V19.7791C22 20.2992 21.5896 20.7209 21.0833 20.7209H17.4167C16.9104 20.7209 16.5 20.2992 16.5 19.7791C16.5 19.1157 15.8443 18.2093 14.3611 18.2093C13.8548 18.2093 13.4444 17.7876 13.4444 17.2674C13.4444 16.7473 13.8548 16.3256 14.3611 16.3256C16.1838 16.3256 17.7314 17.3399 18.1931 18.8372H20.1667V1.88372H18.1844C17.7145 3.33307 16.186 4.39535 14.3611 4.39535C12.5362 4.39535 11.0077 3.33307 10.5379 1.88372H8.55556V9.73256C8.55556 10.2527 8.14515 10.6744 7.63889 10.6744C7.13263 10.6744 6.72222 10.2527 6.72222 9.73256V0.94186Z" fill="#257DFF"/>
<path fill-rule="evenodd" clip-rule="evenodd" d="M0 7.22093C0 6.70075 0.410406 6.27907 0.916667 6.27907H4.58333C5.08959 6.27907 5.5 6.70075 5.5 7.22093C5.5 7.82559 6.17416 8.7907 7.63889 8.7907C9.10362 8.7907 9.77778 7.82559 9.77778 7.22093C9.77778 6.70075 10.1882 6.27907 10.6944 6.27907H14.3611C14.8674 6.27907 15.2778 6.70075 15.2778 7.22093V26.0581C15.2778 26.5783 14.8674 27 14.3611 27H10.6944C10.1882 27 9.77778 26.5783 9.77778 26.0581C9.77778 25.3948 9.12206 24.4884 7.63889 24.4884C6.15572 24.4884 5.5 25.3948 5.5 26.0581C5.5 26.5783 5.08959 27 4.58333 27H0.916667C0.410406 27 0 26.5783 0 26.0581V7.22093ZM1.83333 8.16279V25.1163H3.80691C4.2686 23.619 5.8162 22.6047 7.63889 22.6047C9.46157 22.6047 11.0092 23.619 11.4709 25.1163H13.4444V8.16279H11.4621C10.9923 9.61214 9.46382 10.6744 7.63889 10.6744C5.81396 10.6744 4.28552 9.61214 3.81564 8.16279H1.83333Z" fill="#257DFF"/>
<path d="M4.58333 14.7558C5.25835 14.7558 5.80556 14.1936 5.80556 13.5C5.80556 12.8064 5.25835 12.2442 4.58333 12.2442C3.90832 12.2442 3.36111 12.8064 3.36111 13.5C3.36111 14.1936 3.90832 14.7558 4.58333 14.7558Z" fill="#257DFF"/>
<path d="M7.63889 14.7558C8.3139 14.7558 8.86111 14.1936 8.86111 13.5C8.86111 12.8064 8.3139 12.2442 7.63889 12.2442C6.96387 12.2442 6.41667 12.8064 6.41667 13.5C6.41667 14.1936 6.96387 14.7558 7.63889 14.7558Z" fill="#257DFF"/>
<path d="M10.6944 14.7558C11.3695 14.7558 11.9167 14.1936 11.9167 13.5C11.9167 12.8064 11.3695 12.2442 10.6944 12.2442C10.0194 12.2442 9.47222 12.8064 9.47222 13.5C9.47222 14.1936 10.0194 14.7558 10.6944 14.7558Z" fill="#257DFF"/>
</svg>
