<svg width="26" height="26" viewBox="0 0 26 26" fill="none" xmlns="http://www.w3.org/2000/svg">
<path fill-rule="evenodd" clip-rule="evenodd" d="M12.3315 9.71562C12.5249 10.1205 12.3535 10.6056 11.9486 10.799C11.1256 11.192 10.5599 12.0308 10.5599 13.0001C10.5599 14.3463 11.6512 15.4376 12.9974 15.4376C13.9667 15.4376 14.8055 14.8718 15.1986 14.0489C15.392 13.644 15.877 13.4726 16.2819 13.666C16.6868 13.8594 16.8583 14.3444 16.6649 14.7493C16.0122 16.1158 14.6162 17.0626 12.9974 17.0626C10.7537 17.0626 8.9349 15.2437 8.9349 13.0001C8.9349 11.3813 9.88172 9.98531 11.2482 9.33264C11.6531 9.13924 12.1381 9.3107 12.3315 9.71562Z" fill="#257DFF"/>
<path fill-rule="evenodd" clip-rule="evenodd" d="M5.14323 13.0001C5.14323 8.66235 8.65966 5.14591 12.9974 5.14591C13.9017 5.14591 14.772 5.29909 15.5827 5.58153C16.0064 5.72917 16.2303 6.19236 16.0826 6.61611C15.935 7.03986 15.4718 7.2637 15.048 7.11606C14.4069 6.89268 13.7172 6.77091 12.9974 6.77091C9.55712 6.77091 6.76823 9.55981 6.76823 13.0001C6.76823 16.4404 9.55712 19.2292 12.9974 19.2292C16.4377 19.2292 19.2266 16.4404 19.2266 13.0001C19.2266 12.2803 19.1048 11.5906 18.8814 10.9494C18.7338 10.5257 18.9576 10.0625 19.3814 9.91486C19.8051 9.76722 20.2683 9.99106 20.4159 10.4148C20.6984 11.2255 20.8516 12.0958 20.8516 13.0001C20.8516 17.3378 17.3351 20.8542 12.9974 20.8542C8.65966 20.8542 5.14323 17.3378 5.14323 13.0001Z" fill="#257DFF"/>
<path fill-rule="evenodd" clip-rule="evenodd" d="M1.35156 13.0001C1.35156 6.56826 6.56558 1.35425 12.9974 1.35425C15.014 1.35425 16.9132 1.86751 18.569 2.77118C18.9629 2.98615 19.108 3.47972 18.893 3.87361C18.678 4.2675 18.1844 4.41255 17.7906 4.19758C16.3675 3.42095 14.7353 2.97925 12.9974 2.97925C7.46304 2.97925 2.97656 7.46572 2.97656 13.0001C2.97656 18.5344 7.46304 23.0209 12.9974 23.0209C18.5318 23.0209 23.0182 18.5344 23.0182 13.0001C23.0182 11.2622 22.5765 9.62994 21.7999 8.20691C21.585 7.81302 21.73 7.31944 22.1239 7.10448C22.5178 6.88952 23.0114 7.03457 23.2263 7.42846C24.13 9.08426 24.6432 10.9834 24.6432 13.0001C24.6432 19.4319 19.4292 24.6459 12.9974 24.6459C6.56558 24.6459 1.35156 19.4319 1.35156 13.0001Z" fill="#257DFF"/>
<path fill-rule="evenodd" clip-rule="evenodd" d="M24.4053 1.59222C24.7226 1.90952 24.7226 2.42397 24.4053 2.74127L13.5719 13.5746C13.2546 13.8919 12.7402 13.8919 12.4229 13.5746C12.1056 13.2573 12.1056 12.7429 12.4229 12.4256L23.2562 1.59222C23.5735 1.27492 24.088 1.27492 24.4053 1.59222Z" fill="#257DFF"/>
</svg>
