<svg width="34" height="33" viewBox="0 0 34 33" fill="none" xmlns="http://www.w3.org/2000/svg">
<rect width="34" height="33" fill="white"/>
<path d="M11.5443 12.3431V25.5213H7.2474V12.3431H11.5443ZM11.8177 8.27394C11.8264 8.9211 11.6072 9.46188 11.1602 9.89628C10.7131 10.3307 10.125 10.5479 9.39583 10.5479H9.36979C8.65799 10.5479 8.08507 10.3307 7.65104 9.89628C7.21701 9.46188 7 8.9211 7 8.27394C7 7.61791 7.22352 7.07491 7.67057 6.64495C8.11762 6.21498 8.70139 6 9.42188 6C10.1424 6 10.7196 6.21498 11.1536 6.64495C11.5877 7.07491 11.809 7.61791 11.8177 8.27394ZM27 17.9681V25.5213H22.7161V18.4734C22.7161 17.5426 22.5404 16.8134 22.1888 16.2859C21.8372 15.7584 21.2882 15.4947 20.5417 15.4947C19.9948 15.4947 19.5369 15.6476 19.168 15.9535C18.799 16.2593 18.5234 16.6383 18.3411 17.0904C18.2457 17.3564 18.1979 17.7154 18.1979 18.1676V25.5213H13.9141C13.9314 21.984 13.9401 19.1161 13.9401 16.9176C13.9401 14.719 13.9358 13.4069 13.9271 12.9814L13.9141 12.3431H18.1979V14.258H18.1719C18.3455 13.9743 18.5234 13.7261 18.7057 13.5133C18.888 13.3005 19.1332 13.07 19.4414 12.8218C19.7496 12.5736 20.1272 12.3808 20.5742 12.2434C21.0213 12.1059 21.5182 12.0372 22.0651 12.0372C23.5495 12.0372 24.7431 12.5403 25.6458 13.5465C26.5486 14.5527 27 16.0266 27 17.9681Z" fill="#4334FF"/>
</svg>
